<svg xmlns="http://www.w3.org/2000/svg" viewBox="0 0 60 40">
  <rect width="60" height="40" rx="4" fill="#1A1F71"/>
  <g fill="#fff">
    <polygon points="17.4,27 21,13 25.4,13 21.8,27"/>
    <path d="M36.2,13.3C35.3,13 34,12.6 32.5,12.6c-4.2,0-7.1,2.1-7.1,5.1c0,2.2 2.1,3.5 3.7,4.2c1.7,0.8 2.2,1.3 2.2,1.9c0,1-1.3,1.5-2.5,1.5c-1.7,0-2.6-0.2-4-0.8l-0.5-0.3-0.6,3.5c1,0.4 2.8,0.8 4.7,0.8c4.4,0 7.3-2.1 7.4-5.3c0-1.8-1.1-3.1-3.5-4.2c-1.5-0.7-2.4-1.2-2.4-1.9c0-0.6 0.8-1.3 2.4-1.3c1.4,0 2.4,0.3 3.2,0.6l0.4,0.2L36.2,13.3z"/>
    <path d="M43.4,13L41.1,13c-0.7,0-1.3,0.2-1.6,0.9L34,27l3.2,0c0,0 0.5-1.4 0.7-1.7l3.9,0c0.1,0.4 0.4,1.7 0.4,1.7h2.8L43.4,13zM38.5,22.6c0.3-0.8 1.5-3.8 1.5-3.8c0,0 0.3-0.8 0.5-1.3l0.3,1.2c0,0 0.7,3.3 0.9,4L38.5,22.6z"/>
    <path d="M20,13l-2.6,9.6l-0.3-1.4C16.3,19,14,16.3 11.4,15L14.7,27l3.2,0l4.8-14L20,13z"/>
  </g>
  <path d="M14.8,13L11.2,13l0,0.2c3.8,0.9 6.3,3.1 7.3,5.8l-1.1-5.1C17.2,13.3 16.5,13 15.7,13L14.8,13z" fill="#F9A533"/>
</svg>